<?xml version="1.0" encoding="UTF-8"?>
<svg version="1.1" xmlns="http://www.w3.org/2000/svg" width="85" height="85" viewBox="0 0 550 550" preserveAspectRatio="xMidYMid meet">
<path d="M0 0 C0.75549493 -0.00297112 1.51098987 -0.00594224 2.28937858 -0.0090034 C4.81084526 -0.01764716 7.33226421 -0.01919499 9.85374451 -0.02069092 C11.66602682 -0.02532225 13.47830816 -0.03034733 15.29058838 -0.03573608 C20.20830413 -0.04883396 25.12600624 -0.05530024 30.0437367 -0.05974674 C33.12035571 -0.06268242 36.19697103 -0.06678821 39.27358818 -0.07125092 C48.91167259 -0.08492058 58.54974852 -0.09458915 68.18784195 -0.09845281 C79.29065495 -0.10292875 90.39334454 -0.12045739 101.49612004 -0.1494534 C110.09255394 -0.17111955 118.68895326 -0.18115976 127.28541416 -0.-0.01764716 7.33226421 -0.01919499 9.85374451 -0.02069092 C11.66602682 -0.02532225 13.47830816 -0.03034733 15.29058838 -0.03573608 C20.20830413 -0.04883396 25.12600624 -0.05530024 30.0437367 -0.05974674 C33.12035571 -0.06268242 36.19697103 -0.06678821 39.27358818 -0.07125092 C48.91167259 -0.08492058 58.54974852 -0.09458915 68.18784195 -0.09845281 C79.29065495 -0.10292875 90.39334454 -0.12045739 101.49612004 -0.1494534 C110.09255394 -0.17111955 118.68895326 -0.18115976 127.28541416 -0.18249393 C132.41270157 -0.18353866 137.53987291 -0.18937531 142.66713142 -0.20731354 C147.49593696 -0.22387911 152.32454023 -0.22590881 157.15336418 -0.21717453 C158.91688964 -0.21640861 160.68042636 -0.22068753 162.44392395 -0.23063278 C181.77416735 -0.33317339 198.80602726 3.12994002 213.24266052 16.81256104 C225.36403742 28.968947 229.89196757 43.52534816 231.30467224 60.14044189 C231.91053162 60.15462158 232.51639099 60.16880127 233.14060974 60.18341064 C243.11277591 60.75105703 250.71194578 64.53253836 257.54685974 71.82403564 C264.00613503 80.33592508 265.45932298 89.15178147 265.47264099 99.49981689 C265.47596939 100.40363098 265.47929779 101.30744507 265.48272705 102.23864746 C265.48777994 104.14828993 265.49013588 106.05794119 265.48997498 107.96759033 C265.49215425 110.86650431 265.51030753 113.76503303 265.52928162 116.66387939 C265.53221745 118.52585727 265.53420097 120.38783694 265.53514099 122.24981689 C265.54232651 123.10637878 265.54951202 123.96294067 265.55691528 124.84545898 C265.51502611 136.06517711 262.82187172 145.49522689 255.11717224 153.89044189 C248.19714619 160-0.01764716 7.33226421 -0.01919499 9.85374451 -0.02069092 C11.66602682 -0.02532225 13.47830816 -0.03034733 15.29058838 -0.03573608 C20.20830413 -0.04883396 25.12600624 -0.05530024 30.0437367 -0.05974674 C33.12035571 -0.06268242 36.19697103 -0.06678821 39.27358818 -0.07125092 C48.91167259 -0.08492058 58.54974852 -0.09458915 68.18784195 -0.09845281 C79.29065495 -0.10292875 90.39334454 -0.12045739 101.49612004 -0.1494534 C110.09255394 -0.17111955 118.68895326 -0.18115976 127.28541416 -0.18249393 C132.41270157 -0.18353866 137.53987291 -0.18937531 142.66713142 -0.20731354 C147.49593696 -0.22387911 152.32454023 -0.22590881 157.15336418 -0.21717453 C158.91688964 -0.21640861 160.68042636 -0.22068753 162.44392395 -0.23063278 C181.77416735 -0.33317339 198.80602726 3.12994002 213.24266052 16.81256104 C225.36403742 28.968947 229.89196757 43.52534816 231.30467224 60.14044189 C231.91053162 60.15462158 232.51639099 60.16880127 233.14060974 60.18341064 C243.11277591 60.75105703 250.71194578 64.53253836 257.54685974 71.82403564 C264.00613503 80.33592508 265.45932298 89.15178147 265.47264099 99.49981689 C265.47596939 100.40363098 265.47929779 101.30744507 265.48272705 102.23864746 C265.48777994 104.14828993 265.49013588 106.05794119 265.48997498 107.96759033 C265.49215425 110.86650431 265.51030753 113.76503303 265.52928162 116.66387939 C265.53221745 118.52585727 265.53420097 120.38783694 265.53514099 122.24981689 C265.54232651 123.10637878 265.54951202 123.96294067 265.55691528 124.84545898 C265.51502611 136.06517711 262.82187172 145.49522689 255.11717224 153.89044189 C248.19714619 160.33115878 240.65204622 162.92167357 231.30467224 163.14044189 C231.15771912 164.57323486 231.15771912 164.57323486 231.00779724 166.03497314 C229.00113703 183.38566443 222.83452712 199.14080427 208.74021912 210.38897705 C197.68969054 218.59286361 185.28420609 223.28484086 171.39109802 223.25396729 C170.25036835 223.25389175 169.10963867 223.25381622 167.93434143 223.2537384 C166.71850372 223.24857712 165.50266602 223.24341583 164.24998474 223.23809814 C162.99329987 223.2366832 161.73661499 223.23526825 160.44184875 223.23381042 C157.11775284 223.22917263 153.79372682 223.2202037 150.46965027 223.20910645 C147.07091381 223.1988359 143.67216989 223.19424579 140.27342224 223.18927002 C133.61713315 223.17911085 126.96096567 223.1595326 120.30467224 223.14044189 C120.30467224 234.03044189 120.30467224 244.92044189 120.30467224 256.14044189 C125.39775818 256.10563721 130.49084412 256.07083252 135.73826599 256.03497314 C138.97851194 256.01963172 142.21871266 256.00518897 145.45896912 255.99395752 C150.59407433 255.9760733 155.72901797 255.95499131 160.86399841 255.91412354 C165.00724106 255.88135773 169.15031027 255.86355283 173.29367256 255.85581017 C174.86880788 255.85029739 176.44393447 255.83953276 178.01899529 255.82325172 C198.56261884 255.61947926 198.56261884 255.61947926 206.73045349 263.27325439 C211.8315929 269.32373736 213.30467224 274.22589992 213.30467224 282.14044189 C224.52467224 282.14044189 235.74467224 282.14044189 247.30467224 282.14044189 C247.30467224 278.18044189 247.30467224 274.22044189 247.30467224 270.14044189 C248.92185974 266.92559814 248.92185974 266.92559814 251.30467224 265.14044189 C259.18244485 263.42184922 267.44895733 265.02479427 274.30467224 269.14044189 C282.45842053 275.01066244 288.30791073 282.12366583 290.30467224 292.14044189 C290.40317719 294.44519493 290.44393727 296.75260467 290.45184326 299.05944824 C290.45551995 299.75550887 290.45919664 300.4515695 290.46298474 301.16872287 C290.47399648 303.50077474 290.47786113 305.83278201 290.48167419 308.16485596 C290.48794071 309.83717489 290.49458767 311.50949244 290.50158691 313.18180847 C290.52260609 318.67321812 290.53298679 324.16462799 290.54295349 329.65606689 C290.54700174 331.54790003 290.55111869 333.43973302 290.55530357 335.33156586 C290.57434995 344.21946419 290.58858256 353.10735425 290.59691554 361.99526906 C290.6066885 372.24921825 290.63301188 382.5029516 290.67341644 392.75682473 C290.70358874 400.68647832 290.71838545 408.61607007 290.72169656 416.54577994 C290.72404562 421.28007065 290.73298748 426.01413063 290.75815773 430.74835968 C290.78146321 435.20372119 290.78566178 439.65870043 290.77539635 444.11410713 C290.77490149 445.74589625 290.78120716 447.37770435 290.79495239 449.00943565 C290.86925055 458.35523942 290.8937635 465.71316045 284.59373474 473.16387939 C278.97047171 477.73113059 273.9747376 479.65804057 266.67185974 479.44903564 C259.73366599 478.54455164 254.85309219 475.3694134 250.49607849 470.01934814 C247.99450355 466.07424143 247.05450636 462.59531245 247.06416321 457.94554138 C247.06003922 456.40806244 247.06003922 456.40806244 247.05583191 454.83952332 C247.06302246 453.72606033 247.07021301 452.61259735 247.07762146 451.46539307 C247.07732941 450.2844809 247.07703735 449.10356873 247.07673645 447.88687134 C247.0778892 444.65786186 247.08790435 441.42902681 247.10188437 438.20005202 C247.11440575 434.82214224 247.11556333 431.44422885 247.11793518 428.06629944 C247.12414582 421.67385093 247.14055098 415.28147102 247.16063416 408.88905269 C247.18300614 401.60976205 247.19398985 394.3304681 247.20402503 387.05115163 C247.2249176 372.08087059 247.26158861 357.1106786 247.30467224 342.14044189 C236.08467224 342.14044189 224.86467224 342.14044189 213.30467224 342.14044189 C213.35107849 344.86809814 213.39748474 347.59575439 213.44529724 350.40606689 C213.47671991 353.12365876 213.50087734 355.84122843 213.5243988 358.55889893 C213.54419929 360.41088296 213.57124703 362.26280731 213.60643005 364.11456299 C214.19350982 395.86867128 205.11669339 425.79224649 184.30467224 450.14044189 C183.86896912 450.65445557 183.43326599 451.16846924 182.98435974 451.69805908 C173.01236695 463.33934014 161.69965277 472.6096958 148.30467224 480.14044189 C147.22701599 480.74759033 146.14935974 481.35473877 145.03904724 481.98028564 C132.82405989 488.47127311 119.0376314 493.21432558 105.30467224 495.14044189 C104.60728943 495.25001221 103.90990662 495.35958252 103.19139099 495.47247314 C70.27600643 499.73612399 35.84162319 491.3753812 8.99217224 471.76544189 C-18.27983698 450.23883544 -37.32028246 421.34119559 -42.42744446 386.54299927 C-43.32871346 378.45981347 -42.99345295 370.25852209 -42.88282776 362.14044189 C-42.86773646 360.18993153 -42.85405601 358.23940971 -42.84181213 356.28887939 C-42.8117824 351.57220855 -42.75300519 346.85717385 -42.69532776 342.14044189 C-53.91532776 342.14044189 -65.13532776 342.14044189 -76.69532776 342.14044189 C-76.67438049 345.76399658 -76.65343323 349.38755127 -76.6318512 353.12091064 C-76.56554414 365.09898995 -76.52117354 377.07705646 -76.48807907 389.05526733 C-76.46748112 396.31698991 -76.43941387 403.57853822 -76.39356995 410.84014893 C-76.35361693 417.17168263 -76.32787483 423.50309009 -76.31897378 429.83474636 C-76.3137731 433.18536529 -76.29949007 436.53533808 -76.27240753 439.88589478 C-76.24333136 443.63241909 -76.23937372 447.37819773 -76.2412262 451.12481689 C-76.21965454 452.77883263 -76.21965454 452.77883263 -76.19764709 454.46626282 C-76.23786117 461.99259153 -77.41829979 467.26487001 -82.40626526 473.16387939 C-88.02952829 477.73113059 -93.0252624 479.65804057 -100.32814026 479.44903564 C-107.26633401 478.54455164 -112.14690781 475.3694134 -116.50392151 470.01934814 C-119.41869897 465.42260074 -119.94816582 461.52740452 -119.9627533 456.12136841 C-119.96728441 455.42657005 -119.97181552 454.7317717 -119.97648394 454.01591885 C-119.98911711 451.6939144 -119.98750827 449.37214483 -119.9858551 447.05010986 C-119.99184123 445.38250935 -119.99864697 443.71491161 -120.00621033 442.0473175 C-120.02387377 437.52014505 -120.02856599 432.99304821 -120.0298419 428.46584463 C-120.03126442 425.6343072 -120.03553603 422.80278893 -120.04083633 419.97125626 C-120.05934116 410.08362866 -120.0675068 400.19605498 -120.06593323 390.30841064 C-120.06473327 381.10792795 -120.08580582 371.90768039 -120.11742055 362.70725715 C-120.14362797 354.79705993 -120.15429858 346.88693926 -120.15302241 338.97669899 C-120.15251388 334.2574316 -120.15813599 329.53837298 -120.17937851 324.81914902 C-120.19883502 320.37523767 -120.19883503 315.93173254 -120.18434525 311.48780632 C-120.18226487 309.86373357 -120.18691172 308.23963491 -120.19906616 306.61560631 C-120.29136229 293.42036469 -118.67024028 283.15922497 -109.21095276 273.30841064 C-102.84401814 267.82137848 -95.60513745 265.01178702 -87.25782776 264.76544189 C-86.12474182 264.71645752 -84.99165588 264.66747314 -83.82423401 264.61700439 C-80.69532776 265.14044189 -80.69532776 265.14044189 -78.28517151 266.91387939 C-76.69532776 270.14044189 -76.69532776 270.14044189 -76.69532776 282.14044189 C-65.47532776 282.14044189 -54.25532776 282.14044189 -42.69532776 282.14044189 C-42.69532776 279.83044189 -42.69532776 277.52044189 -42.69532776 275.14044189 C-40.50481695 268.26607387 -36.74386545 263.02646514 -30.69532776 259.14044189 C-22.69374802 255.04356554 -13.79264534 255.75727218 -5.06642151 255.84747314 C-3.46503092 255.85307781 -1.86363515 255.85734379 -0.26223755 255.8603363 C3.92502889 255.87171669 8.11197643 255.90112403 12.29911804 255.93444824 C17.3377702 255.97073372 22.37652979 255.98434275 27.41527557 256.00180817 C35.04529534 256.03076649 42.67461725 256.08830029 50.30467224 256.14044189 C50.30467224 245.25044189 50.30467224 234.36044189 50.30467224 223.14044189 C44.41107849 223.21005127 44.41107849 223.21005127 38.39842224 223.28106689 C34.54247831 223.31236855 30.68654919 223.33659591 26.83055115 223.36016846 C24.1749519 223.37785369 21.52024589 223.40731501 18.86473083 223.44219971 C-5.44060464 223.75322018 -25.12653403 222.32588283 -43.75392151 205.25372314 C-54.5251714 194.23051419 -60.69532776 178.53294288 -60.69532776 163.14044189 C-61.30118713 163.12626221 -61.90704651 163.11208252 -62.53126526 163.09747314 C-72.50343143 162.52982676 -80.1026013 158.74834543 -86.93751526 151.45684814 C-93.43971216 142.88839756 -94.84836303 134.00931235 -94.89845276 123.59747314 C-94.90415283 122.67383469 -94.90985291 121.75019623 -94.91572571 120.79856873 C-94.92515424 118.84605039 -94.93170114 116.89351629 -94.93556213 114.940979 C-94.94523774 111.98048487 -94.97626931 109.02069431 -95.00782776 106.06036377 C-95.01436177 104.15607098 -95.01961067 102.25177327 -95.02345276 100.34747314 C-95.03579956 99.47419876 -95.04814636 98.60092438 -95.06086731 97.70118713 C-95.02318558 87.10395888 -91.91327389 77.88439066 -84.75782776 70.00762939 C-78.72276163 64.16654753 -71.90609273 60.28705193 -63.36329651 60.04669189 C-62.48286682 60.07762939 -61.60243713 60.10856689 -60.69532776 60.14044189 C-60.60896057 59.12466064 -60.52259338 58.10887939 -60.43360901 57.06231689 C-58.87266796 40.96793476 -53.07192405 26.35598705 -41.04689026 15.05059814 C-28.93726139 5.21403914 -15.57834993 -0.01935605 0 0 Z " fill="#D3E3E8" transform="translate(170.69532775878906,7.85955810546875)"/>
<path d="M0 0 C0.75549493 -0.00297112 1.51098987 -0.00594224 2.28937858 -0.0090034 C4.81084526 -0.01764716 7.33226421 -0.01919499 9.85374451 -0.02069092 C11.66602682 -0.02532225 13.47830816 -0.03034733 15.29058838 -0.03573608 C20.20830413 -0.04883396 25.12600624 -0.05530024 30.0437367 -0.05974674 C33.12035571 -0.06268242 36.19697103 -0.06678821 39.27358818 -0.07125092 C48.91167259 -0.08492058 58.54974852 -0.09458915 68.18784195 -0.09845281 C79.29065495 -0.10292875 90.39334454 -0.12045739 101.49612004 -0.1494534 C110.09255394 -0.17111955 118.68895326 -0.18115976 127.28541416 -0.18249393 C132.41270157 -0.18353866 137.53987291 -0.18937531 142.66713142 -0.20731354 C147.49593696 -0.22387911 152.32454023 -0.22590881 157.15336418 -0.21717453 C158.91688964 -0.21640861 160.68042636 -0.22068753 162.44392395 -0.23063278 C181.77416735 -0.33317339 198.80602726 3.12994002 213.24266052 16.81256104 C225.36403742 28.968947 229.89196757 43.52534816 231.30467224 60.14044189 C231.91053162 60.15462158 232.51639099 60.16880127 233.14060974 60.18341064 C243.11277591 60.75105703 250.71194578 64.53253836 257.54685974 71.82403564 C264.00613503 80.33592508 265.45932298 89.15178147 265.47264099 99.49981689 C265.47596939 100.40363098 265.47929779 101.30744507 265.48272705 102.23864746 C265.48777994 104.14828993 265.49013588 106.05794119 265.48997498 107.96759033 C265.49215425 110.86650431 265.51030753 113.76503303 265.52928162 116.66387939 C265.53221745 118.52585727 265.53420097 120.38783694 265.53514099 122.24981689 C265.54232651 123.10637878 265.54951202 123.96294067 265.55691528 124.84545898 C265.51502611 136.06517711 262.82187172 145.49522689 255.11717224 153.89044189 C248.19714619 160.33115878 240.65204622 162.92167357 231.30467224 163.14044189 C231.15771912 164.57323486 231.15771912 164.57323486 231.00779724 166.03497314 C229.00113703 183.38566443 222.83452712 199.14080427 208.74021912 210.38897705 C197.68969054 218.59286361 185.28420609 223.28484086 171.39109802 223.25396729 C170.25036835 223.25389175 169.10963867 223.25381622 167.93434143 223.2537384 C166.71850372 223.24857712 165.50266602 223.24341583 164.24998474 223.23809814 C162.99329987 223.2366832 161.73661499 223.23526825 160.44184875 223.23381042 C157.11775284 223.22917263 153.79372682 223.2202037 150.46965027 223.20910645 C147.0709137 223.1988359 143.67216989 223.19430076 140.27342224 223.18927002 C133.61715307 223.17825889 126.96091669 223.16153411 120.30467224 223.14044189 C120.30990906 224.13487305 120.31514587 225.1293042 120.32054138 226.15386963 C120.33859265 229.83078111 120.3501047 233.50768864 120.35960388 237.18463135 C120.36464381 238.77838804 120.37147574 240.37214008 120.38011169 241.96588135 C120.39219223 244.25194442 120.39790379 246.53794657 120.40232849 248.82403564 C120.40748978 249.54070908 120.41265106 250.25738251 120.41796875 250.99577332 C120.41816487 252.71107862 120.36659232 254.42625456 120.30467224 256.14044189 C118.45670023 257.98841391 115.43671147 257.26820136 112.96482849 257.26983643 C111.97215469 257.2724649 111.97215469 257.2724649 110.95942688 257.27514648 C108.76198234 257.27956407 106.56461766 257.27662736 104.36717224 257.27325439 C102.84642013 257.27392746 101.32566812 257.27489751 99.80491638 257.27615356 C96.61374388 257.27763041 93.42259932 257.27547642 90.23143005 257.27081299 C86.13202694 257.2651157 82.03268929 257.26839478 77.93328857 257.27438545 C74.7918498 257.27799143 71.65042666 257.27685231 68.50898743 257.27425766 C66.9970448 257.27358849 65.48510078 257.27441646 63.97315979 257.27673721 C61.86357337 257.27926435 59.75409437 257.27542233 57.64451599 257.26983643 C56.44174011 257.26904083 55.23896423 257.26824524 53.9997406 257.26742554 C51.30467224 257.14044189 51.30467224 257.14044189 50.30467224 256.14044189 C50.21623431 253.69213763 50.18938472 251.27223591 50.20701599 248.82403564 C50.20913841 247.72745384 50.20913841 247.72745384 50.21130371 246.60871887 C50.21691816 244.26508557 50.22947302 241.9215465 50.24217224 239.57794189 C50.24718538 237.99265681 50.25174861 236.40737024 50.25584412 234.82208252 C50.26689227 230.92816579 50.28416652 227.03431984 50.30467224 223.14044189 C49.62610168 223.14932434 48.94753113 223.15820679 48.24839783 223.1673584 C41.10920235 223.25667663 33.97016861 223.31652243 26.83055115 223.36016846 C24.1749519 223.37785369 21.52024589 223.40731501 18.86473083 223.44219971 C-5.44060464 223.75322018 -25.12653403 222.32588283 -43.75392151 205.25372314 C-54.5251714 194.23051419 -60.69532776 178.53294288 -60.69532776 163.14044189 C-61.30118713 163.12626221 -61.90704651 163.11208252 -62.53126526 163.09747314 C-72.50343143 162.52982676 -80.1026013 158.74834543 -86.93751526 151.45684814 C-93.43971216 142.88839756 -94.84836303 134.00931235 -94.89845276 123.59747314 C-94.90700287 122.21201546 -94.90700287 122.21201546 -94.91572571 120.79856873 C-94.92515424 118.84605039 -94.93170114 116.89351629 -94.93556213 114.940979 C-94.94523774 111.98048487 -94.97626931 109.02069431 -95.00782776 106.06036377 C-95.01436177 104.15607098 -95.01961067 102.25177327 -95.02345276 100.34747314 C-95.03579956 99.47419876 -95.04814636 98.60092438 -95.06086731 97.70118713 C-95.02318558 87.10395888 -91.91327389 77.88439066 -84.75782776 70.00762939 C-78.72276163 64.16654753 -71.90609273 60.28705193 -63.36329651 60.04669189 C-62.48286682 60.07762939 -61.60243713 60.10856689 -60.69532776 60.14044189 C-60.60896057 59.12466064 -60.52259338 58.10887939 -60.43360901 57.06231689 C-58.87266796 40.96793476 -53.07192405 26.35598705 -41.04689026 15.05059814 C-28.93726139 5.21403914 -15.57834993 -0.01935605 0 0 Z " fill="#D3E2E7" transform="translate(170.69532775878906,7.85955810546875)"/>
<path d="M0 0 C1.43967451 -0.0043521 2.87934671 -0.0095369 4.3190155 -0.01548767 C8.21600291 -0.02883958 12.11289309 -0.02946029 16.0098989 -0.02692437 C19.27236288 -0.02585146 22.53480745 -0.03074652 25.79726726 -0.03552979 C33.50190399 -0.04661314 41.20649197 -0.04706986 48.91113281 -0.04101562 C56.83466089 -0.03498458 64.758011 -0.04726738 72.68150872 -0.06858569 C79.50387308 -0.08626017 86.32618111 -0.09219363 93.1485675 -0.08894795 C97.21443224 -0.08714327 101.2801702 -0.0896886 105.34601402 -0.10366249 C109.17515632 -0.11633075 113.00402375 -0.11421274 116.83316231 -0.1012516 C118.22944104 -0.0989052 119.62573966 -0.10155003 121.02199554 -0.10987473 C136.21779144 -0.1938577 148.67082326 2.43596938 160.05981445 12.9621582 C170.31443597 23.79801333 172.12727405 35.237567 172.1105957 49.53637695 C172.11449101 50.93252182 172.11882737 52.32866553 172.12358093 53.72480774 C172.13101897 56.64567916 172.13077086 59.5664297 172.12548828 62.48730469 C172.11971649 66.19775687 172.13658035 69.90770613 172.15983295 73.61807537 C172.17469986 76.50176298 172.17542426 79.38533334 172.17232323 82.26905251 C172.17307446 84.29167005 172.1868498 86.31426961 172.20100403 88.33683777 C172.13077443 102.51884414 169.38010418 114.55150882 159.43481445 125.0871582 C150.34903911 133.57387144 139.91881337 137.37244407 127.55038452 137.42182922 C125.69608322 137.43256218 125.69608322 137.43256218 123.80432129 137.44351196 C122.44726588 137.44635169 121.09021019 137.44906349 119.7331543 137.45166016 C118.29362832 137.45793174 116.85410395 137.46457915 115.4145813 137.47157288 C110.69998281 137.49253492 105.9853843 137.50296866 101.27075195 137.51293945 C99.64212655 137.5169901 98.01350132 137.52110711 96.38487625 137.52528954 C88.73036906 137.54432483 81.0758714 137.55855871 73.42134511 137.5669015 C64.61127283 137.57666461 55.8014524 137.60296682 46.99146879 137.6434024 C40.16488771 137.67365003 33.33837849 137.68837858 26.51173174 137.69168252 C22.44243388 137.69402332 18.37340559 137.70285634 14.30418015 137.72814369 C10.47090984 137.7515813 6.63808362 137.75559547 2.80475998 137.74538231 C1.40685541 137.74489061 0.00892779 137.75110174 -1.38890839 137.76493835 C-16.13844857 137.90263441 -27.62831422 134.37732882 -38.44799805 124.13793945 C-49.2221198 112.74758564 -50.50059766 99.90932228 -50.52612305 84.7824707 C-50.53256683 83.38678864 -50.53929631 81.99110786 -50.54629517 80.59542847 C-50.55820643 77.68232089 -50.56198228 74.76933135 -50.56079102 71.85620117 C-50.56058793 68.15231261 -50.58790617 64.44919215 -50.62233543 60.74548531 C-50.64474153 57.86612578 -50.64862444 54.98694733 -50.64757156 52.10750961 C-50.65102873 50.08757571 -50.67259654 48.06769831 -50.69467163 46.04788208 C-50.63137761 33.17516326 -47.06383518 22.57048978 -38.1550293 13.11450195 C-26.73447655 2.33849539 -15.21211204 -0.03039574 0 0 Z " fill="#202C40" transform="translate(195.190185546875,50.725341796875)"/>
<path d="M0 0 C0.85095749 -0.00570007 1.70191498 -0.01140015 2.57865906 -0.01727295 C4.38177241 -0.02672798 6.18490308 -0.03325892 7.98803711 -0.03710938 C10.74038073 -0.04679987 13.49197283 -0.07781175 16.24414062 -0.109375 C17.99608932 -0.11590663 19.74804335 -0.12115647 21.5 -0.125 C22.73149529 -0.1435202 22.73149529 -0.1435202 23.98786926 -0.16241455 C28.63256067 -0.14440473 31.69153493 0.17068615 35.44921875 3.203125 C37.91268208 6.89831999 37.70793712 8.75418425 37.72387695 13.16552734 C37.72898788 13.86994461 37.73409882 14.57436188 37.73936462 15.30012512 C37.75326969 17.62985725 37.75230298 19.95929379 37.75 22.2890625 C37.75388692 23.90947581 37.75822158 25.5298881 37.76298523 27.15029907 C37.77044975 30.54814962 37.77015486 33.94589628 37.76489258 37.34375 C37.75910274 41.69394908 37.77601581 46.04372173 37.79923725 50.39385033 C37.81398507 53.74134805 37.81484479 57.08874339 37.81172752 60.43626785 C37.81224038 62.03980986 37.81747146 63.64335765 37.82753944 65.24686813 C37.83990486 67.49216969 37.83311188 69.73664482 37.8215332 71.98193359 C37.82216263 73.25861908 37.82279205 74.53530457 37.82344055 75.85067749 C37.42180557 79.44870463 36.58868315 81.31979819 34.44921875 84.203125 C30.82421489 87.03754959 26.31908574 86.50894812 21.921875 86.50390625 C21.09594345 86.50819138 20.2700119 86.5124765 19.41905212 86.51689148 C17.67496659 86.52262566 15.93085714 86.52314176 14.18676758 86.51879883 C11.52448551 86.51564015 8.86331654 86.53910405 6.20117188 86.56445312 C4.50390765 86.56672641 2.80664044 86.56742948 1.109375 86.56640625 C-0.07989845 86.58022087 -0.07989845 86.58022087 -1.29319763 86.59431458 C-5.84133837 86.5564157 -8.9076028 86.22310011 -12.55078125 83.203125 C-14.93996595 79.62451112 -14.81599993 76.35285766 -14.84130859 72.12719727 C-14.84802582 71.42263397 -14.85474304 70.71807068 -14.86166382 69.99215698 C-14.88062967 67.66787628 -14.88456707 65.34388447 -14.88671875 63.01953125 C-14.89314703 61.4005471 -14.89987541 59.78156411 -14.90689087 58.1625824 C-14.91885961 54.77071438 -14.92257205 51.37894819 -14.92138672 47.98706055 C-14.9211834 43.64463338 -14.94849988 39.30285974 -14.98293114 34.9605875 C-15.00518641 31.6173758 -15.00922471 28.27432182 -15.00816727 24.93104362 C-15.01052475 23.33027834 -15.01935663 21.72950882 -15.034832 20.1288166 C-15.05446793 17.88822967 -15.04866515 15.64905784 -15.03662109 13.40844727 C-15.03947113 12.13477798 -15.04232117 10.8611087 -15.04525757 9.54884338 C-14.46564991 5.6271106 -13.31398973 3.98946186 -10.55078125 1.203125 C-7.26345757 -0.44053684 -3.61423905 0.01857168 0 0 Z " fill="#54BAE6" transform="translate(244.55078125,306.796875)"/>
<path d="M0 0 C0 33.99 0 67.98 0 103 C-10.76440087 103 -17.97526741 100.13326192 -25.765625 92.640625 C-33.28427749 83.75494478 -35.1491069 74.68543531 -35.203125 63.45703125 C-35.21167511 62.07157356 -35.21167511 62.07157356 -35.22039795 60.65812683 C-35.22982648 58.70560849 -35.23637338 56.75307439 -35.24023438 54.80053711 C-35.24990998 51.84004297 -35.28094155 48.88025242 -35.3125 45.91992188 C-35.31903401 44.01562909 -35.32428292 42.11133137 -35.328125 40.20703125 C-35.3404718 39.33375687 -35.3528186 38.46048248 -35.36553955 37.56074524 C-35.32785782 26.96351699 -32.21794613 17.74394876 -25.0625 9.8671875 C-17.55577491 2.60175 -10.39493385 0 0 0 Z " fill="#C0D3D8" transform="translate(111,68)"/>
<path d="M0 0 C10.76440087 0 17.97526741 2.86673808 25.765625 10.359375 C33.23391307 19.18553363 35.1536048 28.1986509 35.16796875 39.359375 C35.17296135 40.71509613 35.17296135 40.71509613 35.17805481 42.09820557 C35.1831077 44.00784803 35.18546364 45.91749929 35.18530273 47.82714844 C35.187482 50.72606241 35.20563529 53.62459113 35.22460938 56.5234375 C35.22754521 58.38541538 35.22952873 60.24739505 35.23046875 62.109375 C35.23765427 62.96593689 35.24483978 63.82249878 35.25224304 64.70501709 C35.21035386 75.92473522 32.51719948 85.354785 24.8125 93.75 C17.58733976 100.56319935 9.69886162 103 0 103 C0 69.01 0 35.02 0 0 Z " fill="#C0D3D8" transform="translate(401,68)"/>
<path d="M0 0 C0.66178253 -0.00175232 1.32356506 -0.00350464 2.00540161 -0.00531006 C4.20284615 -0.00972764 6.40021083 -0.00679094 8.59765625 -0.00341797 C10.11840836 -0.00409104 11.63916037 -0.00506108 13.15991211 -0.00631714 C16.35108461 -0.00779398 19.54222917 -0.00563999 22.73339844 -0.00097656 C26.83280155 0.00472073 30.93213921 0.00144165 35.03153992 -0.00454903 C38.17297869 -0.008155 41.31440183 -0.00701589 44.45584106 -0.00442123 C45.96778369 -0.00375207 47.47972771 -0.00458003 48.9916687 -0.00690079 C51.10125512 -0.00942792 53.21073412 -0.00558591 55.3203125 0 C56.52308838 0.00079559 57.72586426 0.00159119 58.96508789 0.00241089 C61.66015625 0.12939453 61.66015625 0.12939453 62.66015625 1.12939453 C62.76098389 3.56599899 62.79988228 5.97364154 62.79296875 8.41064453 C62.79392548 9.13932739 62.7948822 9.86801025 62.79586792 10.61877441 C62.7965496 12.16219163 62.79469613 13.7056117 62.79052734 15.24902344 C62.78517887 17.61936853 62.79047267 19.98952412 62.796875 22.35986328 C62.79621422 23.85595745 62.79493305 25.3520515 62.79296875 26.84814453 C62.79499298 27.56168091 62.79701721 28.27521729 62.79910278 29.01037598 C62.77510816 34.01444262 62.77510816 34.01444262 61.66015625 35.12939453 C59.54877724 35.22887646 57.43403339 35.25739091 55.3203125 35.25878906 C54.3276387 35.26141754 54.3276387 35.26141754 53.31491089 35.26409912 C51.11746635 35.2685167 48.92010167 35.26558 46.72265625 35.26220703 C45.20190414 35.2628801 43.68115213 35.26385015 42.16040039 35.2651062 C38.96922789 35.26658305 35.77808333 35.26442905 32.58691406 35.25976562 C28.48751095 35.25406834 24.38817329 35.25734741 20.28877258 35.26333809 C17.14733381 35.26694407 14.00591067 35.26580495 10.86447144 35.2632103 C9.35252881 35.26254113 7.84058479 35.2633691 6.3286438 35.26568985 C4.21905738 35.26821698 2.10957838 35.26437497 0 35.25878906 C-1.20277588 35.25799347 -2.40555176 35.25719788 -3.64477539 35.25637817 C-6.33984375 35.12939453 -6.33984375 35.12939453 -7.33984375 34.12939453 C-7.44067139 31.69279008 -7.47956978 29.28514752 -7.47265625 26.84814453 C-7.47361298 26.11946167 -7.4745697 25.39077881 -7.47555542 24.64001465 C-7.4762371 23.09659743 -7.47438363 21.55317736 -7.47021484 20.00976562 C-7.46486637 17.63942053 -7.47016017 15.26926494 -7.4765625 12.89892578 C-7.47590172 11.40283161 -7.47462055 9.90673756 -7.47265625 8.41064453 C-7.47468048 7.69710815 -7.47670471 6.98357178 -7.47879028 6.24841309 C-7.44681812 -0.41936712 -6.46971095 0.00427948 0 0 Z " fill="#C0D3D8" transform="translate(228.33984375,229.87060546875)"/>
<path d="M0 0 C0.33 0 0.66 0 1 0 C1.09293193 8.85824612 1.16388192 17.71632283 1.20724869 26.57495117 C1.2280691 30.68897802 1.25628411 34.80266983 1.30175781 38.91650391 C1.34541523 42.89117701 1.36917877 46.8655291 1.37950897 50.84042358 C1.38686487 52.35221404 1.401229 53.86398814 1.42292023 55.37564087 C1.54952068 64.56912546 1.48513922 71.69565727 -4.7109375 79.0234375 C-10.33420053 83.59068869 -15.32993464 85.51759867 -22.6328125 85.30859375 C-29.57100625 84.40410975 -34.45158005 81.22897151 -38.80859375 75.87890625 C-41.5971002 71.48129444 -42.24436161 67.78015038 -42.1953125 62.60546875 C-42.18886719 61.40341797 -42.18242187 60.20136719 -42.17578125 58.96289062 C-42.15902344 57.71701172 -42.14226562 56.47113281 -42.125 55.1875 C-42.11597656 53.92228516 -42.10695313 52.65707031 -42.09765625 51.35351562 C-42.07412394 48.23548436 -42.04124545 45.11783903 -42 42 C-41.04480469 41.78085937 -40.08960938 41.56171875 -39.10546875 41.3359375 C-26.43882756 38.29219443 -15.63828 34.19835361 -8 23 C-3.86658008 15.65374366 -1.09540797 8.36665052 0 0 Z " fill="#C0D3D8" transform="translate(460,402)"/>
<path d="M0 0 C0.33 0 0.66 0 1 0 C1.21914063 0.95519531 1.43828125 1.91039062 1.6640625 2.89453125 C5.0152552 16.84063463 9.83284459 27.50996579 22.34375 35.49609375 C27.02482385 38.05700591 31.62373184 39.48714077 36.828125 40.63671875 C38.56690918 41.02476685 38.56690918 41.02476685 40.34082031 41.4206543 C41.65711426 41.70743042 41.65711426 41.70743042 43 42 C43.116965 46.33310328 43.1875089 50.6657958 43.25 55 C43.30027344 56.83111328 43.30027344 56.83111328 43.3515625 58.69921875 C43.44158635 67.02642529 42.80422282 72.50094196 37.2890625 79.0234375 C31.66579947 83.59068869 26.67006536 85.51759867 19.3671875 85.30859375 C12.42899375 84.40410975 7.54841995 81.22897151 3.19140625 75.87890625 C0.29557153 71.31203247 -0.24669224 67.47032839 -0.22705078 62.09838867 C-0.22734283 61.42466217 -0.22763489 60.75093567 -0.22793579 60.05679321 C-0.22654938 57.84371786 -0.21102111 55.63098484 -0.1953125 53.41796875 C-0.19157991 51.87811975 -0.1887341 50.33826837 -0.18673706 48.79841614 C-0.17911994 44.75584292 -0.15948808 40.71341461 -0.1373291 36.67089844 C-0.11682918 32.5416866 -0.10772649 28.41245124 -0.09765625 24.28320312 C-0.07624026 16.18873577 -0.04212766 8.09438594 0 0 Z " fill="#C0D3D8" transform="translate(51,402)"/>
<path d="M0 0 C5.07074877 3.08654273 8.76575334 8.23515955 10.62109375 13.89453125 C12.10280763 22.12797229 11.61618484 29.90550943 7 37 C2.96046605 42.2462808 -1.41665168 45.79146263 -8 47 C-16.48678967 47.9936743 -22.91271521 47.62341905 -30.015625 42.6328125 C-35.50544451 38.11559881 -39.24347785 31.82178952 -40.35546875 24.734375 C-40.63489406 17.12336178 -38.61465146 10.6079607 -33.8125 4.6875 C-24.07351854 -5.69247599 -12.28520162 -5.57187097 0 0 Z " fill="#51B8E4" transform="translate(219,89)"/>
<path d="M0 0 C6.15269466 3.30852449 10.48747252 8.41928736 12.9375 14.9375 C15.31173893 23.7432216 14.19607843 29.67228301 9.8515625 37.75390625 C7.18849229 41.70356524 4.12163392 44.180538 0 46.5 C-0.60070312 46.87253906 -1.20140625 47.24507812 -1.8203125 47.62890625 C-7.78594628 50.01302154 -16.36460533 49.37032699 -22.4375 47.4375 C-29.08475334 44.37720135 -33.68397505 38.74166217 -36.34375 32.0234375 C-38.38541337 24.17275574 -37.54070651 16.70786682 -34 9.5 C-26.97276162 -2.30576048 -12.21307948 -4.63470709 0 0 Z " fill="#51B8E4" transform="translate(319,87.5)"/>
<path d="M0 0 C11.22 0 22.44 0 34 0 C34 19.8 34 39.6 34 60 C22.78 60 11.56 60 0 60 C0 40.2 0 20.4 0 0 Z " fill="#C0D3D8" transform="translate(384,290)"/>
<path d="M0 0 C11.22 0 22.44 0 34 0 C34 19.8 34 39.6 34 60 C22.78 60 11.56 60 0 60 C0 40.2 0 20.4 0 0 Z " fill="#C0D3D8" transform="translate(94,290)"/>
<path d="M0 0 C1.02416016 -0.01933594 2.04832031 -0.03867188 3.10351562 -0.05859375 C11.46999249 -0.0044418 11.46999249 -0.0044418 15.25 2.9765625 C17.5625 5.625 17.5625 5.625 18.125 8.625 C17.5070923 11.92050775 16.55548985 13.94212904 14.5625 16.625 C10.45749122 18.67750439 5.19933056 17.89819834 0.6875 17.9375 C-0.41464844 17.96650391 -1.51679688 17.99550781 -2.65234375 18.02539062 C-4.24369141 18.03795898 -4.24369141 18.03795898 -5.8671875 18.05078125 C-7.32487549 18.07265503 -7.32487549 18.07265503 -8.81201172 18.0949707 C-12.16965139 17.49394259 -13.31071085 16.22821173 -15.4375 13.625 C-16.88180855 10.73638291 -16.81438506 8.82852299 -16.4375 5.625 C-12.13805602 -0.69880422 -6.98412002 -0.13136276 0 0 Z " fill="#51B7E3" transform="translate(255.4375,144.375)"/>
</svg>
