<svg id="svg" version="1.1" xmlns="http://www.w3.org/2000/svg" xmlns:xlink="http://www.w3.org/1999/xlink" width="80" height="80" viewBox="0, 0, 400,400"><g id="svgg"><path id="path0" d="M141.400 40.824 C 137.529 41.428,137.184 41.530,133.504 43.160 C 132.462 43.622,131.509 44.000,131.386 44.000 C 130.535 44.000,124.863 48.448,122.576 50.909 C 118.370 55.436,115.955 59.925,114.498 65.926 C 113.633 69.488,113.238 112.143,114.019 117.600 C 115.343 126.849,119.725 134.344,127.000 139.800 C 129.633 141.775,134.648 144.400,135.788 144.400 C 136.099 144.400,136.452 144.560,136.573 144.756 C 136.837 145.183,138.650 145.519,143.200 145.983 C 147.636 146.436,252.364 146.436,256.800 145.983 C 261.350 145.519,263.163 145.183,263.427 144.756 C 263.548 144.560,263.912 144.400,264.235 144.400 C 268.164 144.400,278.355 136.224,281.436 130.600 C 281.677 130.160,282.234 129.170,282.673 128.400 C 286.026 122.519,286.399 119.013,286.398 93.400 C 286.397 66.085,285.974 63.034,281.145 55.564 C 278.451 51.396,270.437 44.000,268.614 44.000 C 268.491 44.000,267.538 43.622,266.496 43.160 C 262.688 41.473,262.372 41.385,258.000 40.793 C 254.804 40.360,144.186 40.390,141.400 40.824 M165.013 67.175 C 182.920 72.137,185.520 96.518,169.008 104.626 C 164.710 106.737,157.032 107.476,154.090 106.062 C 149.317 103.769,147.933 102.950,146.377 101.500 C 131.128 87.277,145.046 61.642,165.013 67.175 M244.542 67.029 C 258.842 70.687,264.877 87.191,256.117 98.684 C 253.498 102.120,251.463 103.575,245.639 106.172 C 242.096 107.752,233.047 106.334,229.000 103.564 C 210.612 90.980,223.131 61.551,244.542 67.029 M209.520 113.764 C 212.498 115.320,214.097 118.743,213.226 121.700 C 211.911 126.171,210.278 126.800,200.000 126.800 C 190.864 126.800,190.353 126.701,188.348 124.536 C 185.315 121.260,186.157 116.400,190.183 113.945 C 191.795 112.962,207.700 112.813,209.520 113.764 " stroke="none" fill="#242d3d" fill-rule="evenodd"></path><path id="path1" d="M157.200 67.190 C 149.898 68.097,144.107 72.947,141.190 80.600 C 137.512 90.247,143.412 101.438,154.400 105.657 C 156.262 106.373,163.736 106.373,165.600 105.658 C 174.687 102.173,179.600 95.485,179.600 86.600 C 179.600 74.541,169.372 65.679,157.200 67.190 M237.000 67.187 C 221.173 69.419,214.761 89.226,226.179 100.615 C 228.405 102.837,230.679 104.231,234.400 105.658 C 236.264 106.373,243.738 106.373,245.600 105.657 C 256.617 101.427,262.559 90.065,258.758 80.500 C 254.918 70.841,246.709 65.817,237.000 67.187 M190.316 114.419 C 185.839 116.783,185.888 123.298,190.401 125.601 C 192.768 126.808,207.232 126.808,209.599 125.601 C 214.161 123.273,214.161 116.727,209.599 114.399 C 207.259 113.206,192.585 113.221,190.316 114.419 M184.582 240.672 C 183.334 240.920,181.675 242.523,181.003 244.131 C 180.485 245.370,180.400 249.509,180.400 273.400 C 180.400 304.220,180.296 302.965,183.026 305.047 L 184.538 306.200 200.032 306.200 L 215.526 306.200 217.063 304.962 C 219.621 302.902,219.553 303.761,219.577 273.287 C 219.604 241.214,219.650 241.550,215.093 240.639 C 213.789 240.378,185.909 240.408,184.582 240.672 " stroke="none" fill="#53bbe3" fill-rule="evenodd"></path><path id="path2" d="M127.200 6.400 C 127.200 6.622,126.133 6.800,124.800 6.800 C 123.467 6.800,122.400 6.978,122.400 7.200 C 122.400 7.420,121.781 7.600,121.024 7.600 C 120.267 7.600,119.536 7.780,119.400 8.000 C 119.264 8.220,118.668 8.401,118.076 8.402 C 117.484 8.404,116.484 8.674,115.854 9.002 C 115.224 9.331,114.459 9.600,114.154 9.600 C 113.849 9.600,113.600 9.780,113.600 10.000 C 113.600 10.220,113.328 10.400,112.995 10.400 C 112.439 10.400,110.876 11.123,110.400 11.601 C 110.290 11.711,109.660 12.070,109.000 12.398 C 108.340 12.726,107.512 13.307,107.159 13.690 C 106.807 14.072,106.436 14.302,106.334 14.201 C 106.233 14.099,105.501 14.628,104.709 15.375 C 103.916 16.123,103.162 16.629,103.034 16.501 C 102.905 16.372,102.800 16.507,102.800 16.800 C 102.800 17.093,102.708 17.242,102.596 17.130 C 102.256 16.790,97.200 21.922,97.200 22.608 C 97.200 22.959,97.020 23.136,96.800 23.000 C 96.580 22.864,96.400 22.945,96.400 23.180 C 96.400 23.415,95.860 24.172,95.200 24.863 C 94.540 25.554,94.000 26.279,94.000 26.476 C 94.000 26.673,93.649 27.210,93.220 27.671 C 92.791 28.131,92.327 29.024,92.188 29.654 C 92.050 30.284,91.771 30.800,91.568 30.800 C 91.366 30.800,91.200 31.160,91.200 31.600 C 91.200 32.040,91.020 32.400,90.800 32.400 C 90.580 32.400,90.400 32.760,90.400 33.200 C 90.400 33.640,90.220 34.000,90.000 34.000 C 89.780 34.000,89.600 34.360,89.600 34.800 C 89.600 35.240,89.420 35.600,89.200 35.600 C 88.980 35.600,88.800 36.140,88.800 36.800 C 88.800 37.460,88.620 38.000,88.400 38.000 C 88.180 38.000,88.000 38.619,88.000 39.376 C 88.000 40.133,87.820 40.864,87.600 41.000 C 87.380 41.136,87.200 41.967,87.200 42.847 C 87.200 43.812,87.041 44.349,86.800 44.200 C 86.545 44.043,86.400 45.188,86.400 47.353 C 86.400 49.223,86.220 50.864,86.000 51.000 C 85.780 51.136,85.600 51.597,85.600 52.024 C 85.600 52.694,85.312 52.800,83.480 52.800 C 82.314 52.800,81.189 52.965,80.980 53.166 C 80.771 53.368,79.970 53.589,79.200 53.658 C 78.430 53.726,77.694 53.931,77.564 54.111 C 77.434 54.292,76.952 54.468,76.492 54.503 C 76.032 54.538,75.744 54.709,75.851 54.883 C 75.959 55.057,75.587 55.200,75.024 55.200 C 74.461 55.200,74.000 55.380,74.000 55.600 C 74.000 55.820,73.680 56.000,73.288 56.000 C 72.897 56.000,72.317 56.360,72.000 56.800 C 71.683 57.240,71.103 57.600,70.712 57.600 C 70.320 57.600,69.999 57.735,69.999 57.900 C 69.998 58.065,69.459 58.560,68.800 59.000 C 68.141 59.440,67.602 59.933,67.601 60.097 C 67.600 60.513,65.159 62.800,64.717 62.800 C 64.517 62.800,64.444 62.947,64.555 63.127 C 64.666 63.307,64.317 63.929,63.779 64.510 C 63.240 65.090,62.800 65.843,62.800 66.183 C 62.800 66.522,62.620 66.800,62.400 66.800 C 62.180 66.800,62.000 67.149,62.000 67.576 C 62.000 68.003,61.820 68.464,61.600 68.600 C 61.380 68.736,61.200 69.197,61.200 69.624 C 61.200 70.051,61.040 70.400,60.845 70.400 C 60.650 70.400,60.395 70.895,60.278 71.500 C 59.888 73.516,59.624 74.984,59.327 76.800 C 58.537 81.621,59.096 113.600,59.971 113.600 C 60.111 113.600,60.266 114.087,60.315 114.682 C 60.364 115.278,60.584 115.944,60.802 116.162 C 61.021 116.381,61.200 116.985,61.200 117.504 C 61.200 118.031,61.377 118.338,61.600 118.200 C 61.828 118.059,62.000 118.404,62.000 119.000 C 62.000 119.596,62.172 119.941,62.400 119.800 C 62.620 119.664,62.800 119.846,62.800 120.205 C 62.800 120.564,63.025 121.086,63.300 121.365 C 63.575 121.645,64.250 122.472,64.800 123.204 C 66.467 125.423,70.319 129.200,70.916 129.200 C 71.224 129.200,71.802 129.560,72.200 130.000 C 72.598 130.440,73.391 130.803,73.962 130.806 C 74.779 130.811,74.872 130.895,74.400 131.200 C 73.878 131.537,73.885 131.589,74.451 131.594 C 74.809 131.597,75.799 131.903,76.651 132.274 C 77.503 132.644,78.734 133.019,79.386 133.106 C 80.039 133.193,80.882 133.430,81.260 133.632 C 81.638 133.834,82.769 134.000,83.774 134.000 C 85.315 134.000,85.600 134.121,85.600 134.776 C 85.600 135.203,85.780 135.664,86.000 135.800 C 86.220 135.936,86.400 137.477,86.400 139.224 C 86.400 141.075,86.567 142.400,86.800 142.400 C 87.020 142.400,87.200 143.120,87.200 144.000 C 87.200 144.880,87.380 145.600,87.600 145.600 C 87.820 145.600,88.000 146.219,88.000 146.976 C 88.000 147.733,88.180 148.464,88.400 148.600 C 88.620 148.736,88.800 149.191,88.800 149.611 C 88.800 150.032,89.160 151.017,89.600 151.800 C 90.040 152.583,90.400 153.489,90.400 153.812 C 90.400 154.135,90.580 154.400,90.800 154.400 C 91.020 154.400,91.200 154.760,91.200 155.200 C 91.200 155.640,91.341 156.000,91.512 156.000 C 91.684 156.000,92.038 156.495,92.299 157.100 C 93.010 158.752,94.235 160.758,95.274 161.973 C 95.783 162.569,96.408 163.404,96.663 163.828 C 96.917 164.253,97.336 164.551,97.593 164.490 C 97.849 164.430,97.960 164.541,97.839 164.737 C 97.717 164.933,98.547 166.063,99.682 167.247 C 100.818 168.431,101.759 169.318,101.773 169.218 C 101.798 169.047,102.117 169.293,104.734 171.500 C 105.320 171.994,105.997 172.399,106.238 172.400 C 106.479 172.400,107.002 172.760,107.400 173.200 C 107.798 173.640,108.344 174.000,108.613 174.000 C 108.882 174.000,109.326 174.270,109.600 174.600 C 109.874 174.930,110.436 175.200,110.849 175.200 C 111.262 175.200,111.600 175.380,111.600 175.600 C 111.600 175.820,111.872 176.000,112.205 176.000 C 112.538 176.000,113.168 176.180,113.605 176.400 C 114.042 176.620,114.758 176.980,115.195 177.200 C 115.632 177.420,116.352 177.600,116.795 177.600 C 117.238 177.600,117.600 177.780,117.600 178.000 C 117.600 178.220,118.140 178.400,118.800 178.400 C 119.460 178.400,120.000 178.580,120.000 178.800 C 120.000 179.020,120.720 179.200,121.600 179.200 C 122.480 179.200,123.200 179.380,123.200 179.600 C 123.200 179.820,124.190 180.000,125.400 180.000 C 126.610 180.000,127.600 180.180,127.600 180.400 C 127.600 180.662,135.333 180.800,150.000 180.800 L 172.400 180.800 172.400 193.400 L 172.400 206.000 144.200 206.000 C 125.667 206.000,116.000 206.137,116.000 206.400 C 116.000 206.620,115.280 206.800,114.400 206.800 C 113.520 206.800,112.800 206.980,112.800 207.200 C 112.800 207.420,112.451 207.600,112.024 207.600 C 111.597 207.600,111.136 207.780,111.000 208.000 C 110.864 208.220,110.410 208.400,109.992 208.400 C 109.574 208.400,108.854 208.805,108.393 209.300 C 107.932 209.795,107.416 210.200,107.246 210.200 C 106.662 210.200,104.407 212.201,104.404 212.724 C 104.402 213.012,104.220 213.136,104.000 213.000 C 103.780 212.864,103.600 213.041,103.600 213.393 C 103.600 213.745,103.240 214.420,102.800 214.892 C 102.360 215.364,102.000 215.987,102.000 216.275 C 102.000 216.564,101.820 216.800,101.600 216.800 C 101.380 216.800,101.200 217.149,101.200 217.576 C 101.200 218.003,101.020 218.464,100.800 218.600 C 100.580 218.736,100.400 219.287,100.400 219.824 C 100.400 220.361,100.220 220.800,100.000 220.800 C 99.774 220.800,99.600 221.933,99.600 223.400 L 99.600 226.000 86.800 226.000 L 74.000 226.000 73.953 221.700 C 73.927 219.335,73.927 217.265,73.953 217.100 C 73.979 216.935,73.820 216.800,73.600 216.800 C 73.380 216.800,73.200 216.575,73.200 216.300 C 73.199 215.525,71.384 213.600,70.653 213.600 C 70.294 213.600,70.000 213.420,70.000 213.200 C 70.000 212.957,68.208 212.800,65.424 212.800 C 62.804 212.800,60.742 212.971,60.600 213.200 C 60.464 213.420,59.733 213.600,58.976 213.600 C 58.219 213.600,57.600 213.780,57.600 214.000 C 57.600 214.220,57.060 214.400,56.400 214.400 C 55.740 214.400,55.200 214.580,55.200 214.800 C 55.200 215.020,54.840 215.200,54.400 215.200 C 53.960 215.200,53.600 215.380,53.600 215.600 C 53.600 215.820,53.364 216.000,53.075 216.000 C 52.787 216.000,52.164 216.360,51.692 216.800 C 51.220 217.240,50.667 217.600,50.463 217.600 C 50.260 217.600,48.888 218.770,47.415 220.200 C 45.942 221.630,44.854 222.800,44.997 222.800 C 45.140 222.800,45.019 223.048,44.729 223.351 C 43.419 224.716,41.200 228.926,41.200 230.044 C 41.200 230.434,41.020 230.864,40.800 231.000 C 40.580 231.136,40.400 231.867,40.400 232.624 C 40.400 233.381,40.220 234.000,40.000 234.000 C 39.444 234.000,39.447 366.967,40.003 368.005 C 40.224 368.419,40.442 369.204,40.488 369.750 C 40.533 370.296,40.712 370.655,40.885 370.548 C 41.058 370.440,41.200 370.824,41.200 371.400 C 41.200 371.996,41.372 372.341,41.600 372.200 C 41.820 372.064,42.022 372.143,42.050 372.376 C 42.077 372.609,42.123 372.995,42.150 373.232 C 42.178 373.470,42.549 373.920,42.976 374.232 C 43.404 374.545,43.620 374.800,43.458 374.800 C 43.296 374.800,43.614 375.250,44.164 375.800 C 44.714 376.350,45.362 376.800,45.605 376.800 C 45.848 376.800,45.936 376.980,45.800 377.200 C 45.664 377.420,45.841 377.600,46.193 377.600 C 46.545 377.600,47.220 377.960,47.692 378.400 C 48.164 378.840,48.956 379.200,49.452 379.200 C 49.947 379.200,50.464 379.380,50.600 379.600 C 50.736 379.820,51.276 380.000,51.800 380.000 C 52.324 380.000,52.849 380.156,52.967 380.347 C 53.286 380.863,60.400 380.933,60.400 380.420 C 60.400 380.189,60.940 380.000,61.600 380.000 C 62.260 380.000,62.800 379.820,62.800 379.600 C 62.800 379.380,63.351 379.200,64.024 379.200 C 64.737 379.200,65.144 379.033,65.000 378.800 C 64.864 378.580,65.033 378.400,65.376 378.400 C 65.719 378.400,66.000 378.232,66.000 378.027 C 66.000 377.822,66.335 377.548,66.745 377.418 C 67.500 377.178,71.056 374.000,70.569 374.000 C 70.424 374.000,70.776 373.382,71.353 372.627 C 71.929 371.871,72.400 371.061,72.400 370.827 C 72.400 370.592,72.591 370.400,72.824 370.400 C 73.057 370.400,73.138 370.224,73.005 370.008 C 72.872 369.793,72.989 369.208,73.266 368.708 C 73.963 367.450,73.933 369.590,73.968 319.300 L 74.000 274.000 86.800 274.000 L 99.600 274.000 99.600 290.000 C 99.600 300.400,99.740 306.000,100.000 306.000 C 100.226 306.000,100.400 307.133,100.400 308.600 C 100.400 310.067,100.574 311.200,100.800 311.200 C 101.020 311.200,101.200 312.100,101.200 313.200 C 101.200 314.300,101.380 315.200,101.600 315.200 C 101.820 315.200,102.000 315.920,102.000 316.800 C 102.000 317.680,102.180 318.400,102.400 318.400 C 102.620 318.400,102.800 319.120,102.800 320.000 C 102.800 320.880,102.980 321.600,103.200 321.600 C 103.420 321.600,103.603 321.915,103.606 322.300 C 103.613 323.118,104.527 325.861,104.926 326.259 C 105.077 326.410,105.200 326.953,105.200 327.467 C 105.200 327.980,105.380 328.400,105.600 328.400 C 105.820 328.400,106.000 328.940,106.000 329.600 C 106.000 330.260,106.180 330.800,106.400 330.800 C 106.620 330.800,106.800 331.149,106.800 331.576 C 106.800 332.003,106.980 332.464,107.200 332.600 C 107.420 332.736,107.600 333.287,107.600 333.824 C 107.600 334.361,107.780 334.800,108.000 334.800 C 108.220 334.800,108.401 335.115,108.401 335.500 C 108.402 335.885,108.760 336.785,109.196 337.500 C 109.632 338.215,109.873 338.800,109.732 338.800 C 109.591 338.800,109.802 339.160,110.200 339.600 C 110.598 340.040,110.761 340.403,110.562 340.406 C 110.363 340.409,110.380 340.544,110.600 340.706 C 111.098 341.072,112.374 343.163,112.671 344.100 C 112.793 344.485,113.052 344.800,113.247 344.800 C 113.441 344.800,113.600 345.078,113.600 345.417 C 113.600 345.756,113.960 346.420,114.400 346.892 C 114.840 347.364,115.200 347.987,115.200 348.275 C 115.200 348.564,115.338 348.800,115.506 348.800 C 115.674 348.800,116.256 349.520,116.800 350.400 C 117.344 351.280,117.926 352.000,118.094 352.000 C 118.262 352.000,118.400 352.371,118.400 352.824 C 118.400 353.277,118.580 353.536,118.800 353.400 C 119.020 353.264,119.200 353.394,119.200 353.688 C 119.200 353.983,119.560 354.483,120.000 354.800 C 120.440 355.117,120.800 355.544,120.800 355.748 C 120.800 355.953,121.700 356.983,122.800 358.037 C 123.900 359.092,124.800 360.138,124.800 360.361 C 124.800 360.585,125.513 361.495,126.384 362.384 C 127.255 363.273,127.873 364.000,127.756 364.000 C 127.639 364.000,127.813 364.270,128.143 364.600 C 128.473 364.930,128.946 365.200,129.195 365.200 C 129.444 365.200,129.536 365.380,129.400 365.600 C 129.264 365.820,129.298 366.001,129.476 366.002 C 129.654 366.003,130.452 366.588,131.249 367.302 C 132.045 368.016,133.125 368.943,133.649 369.363 C 134.172 369.783,135.236 370.683,136.013 371.363 C 136.790 372.043,137.935 372.960,138.557 373.400 C 139.180 373.840,139.926 374.425,140.216 374.700 C 140.506 374.975,140.986 375.200,141.283 375.200 C 141.580 375.200,142.083 375.560,142.400 376.000 C 142.717 376.440,143.124 376.800,143.305 376.800 C 143.486 376.800,144.020 377.160,144.492 377.600 C 144.964 378.040,145.587 378.400,145.875 378.400 C 146.164 378.400,146.400 378.580,146.400 378.800 C 146.400 379.020,146.670 379.200,147.000 379.200 C 147.330 379.200,147.600 379.380,147.600 379.600 C 147.600 379.820,147.870 380.000,148.200 380.000 C 148.530 380.000,148.800 380.180,148.800 380.400 C 148.800 380.620,149.160 380.800,149.600 380.800 C 150.040 380.800,150.400 380.980,150.400 381.200 C 150.400 381.420,150.760 381.600,151.200 381.600 C 151.640 381.600,152.000 381.780,152.000 382.000 C 152.000 382.220,152.360 382.400,152.800 382.400 C 153.240 382.400,153.600 382.580,153.600 382.800 C 153.600 383.020,153.960 383.200,154.400 383.200 C 154.840 383.200,155.200 383.380,155.200 383.600 C 155.200 383.820,155.560 384.000,156.000 384.000 C 156.440 384.000,156.800 384.180,156.800 384.400 C 156.800 384.620,157.160 384.800,157.600 384.800 C 158.040 384.800,158.400 384.936,158.400 385.102 C 158.400 385.269,158.985 385.644,159.700 385.936 C 162.450 387.059,163.022 387.304,163.695 387.647 C 164.077 387.841,164.752 388.000,165.195 388.000 C 165.638 388.000,166.000 388.180,166.000 388.400 C 166.000 388.620,166.540 388.800,167.200 388.800 C 167.860 388.800,168.400 388.980,168.400 389.200 C 168.400 389.420,168.904 389.600,169.520 389.600 C 170.136 389.600,170.856 389.816,171.120 390.080 C 171.384 390.344,171.600 390.435,171.600 390.283 C 171.600 390.131,172.275 390.260,173.100 390.569 C 173.925 390.878,174.870 391.155,175.200 391.184 C 179.251 391.539,180.367 391.730,180.177 392.037 C 180.054 392.237,180.853 392.400,181.953 392.400 C 183.053 392.400,184.064 392.580,184.200 392.800 C 184.337 393.021,186.137 393.200,188.224 393.200 C 190.475 393.200,192.000 393.362,192.000 393.600 C 192.000 393.853,194.933 394.000,200.000 394.000 C 205.067 394.000,208.000 393.853,208.000 393.600 C 208.000 393.362,209.525 393.200,211.776 393.200 C 213.863 393.200,215.663 393.021,215.800 392.800 C 215.936 392.580,216.937 392.400,218.024 392.400 C 219.111 392.400,220.000 392.237,220.000 392.039 C 220.000 391.840,220.855 391.587,221.900 391.477 C 224.655 391.188,226.036 390.941,227.470 390.480 C 228.168 390.256,228.843 390.177,228.970 390.303 C 229.096 390.430,229.200 390.323,229.200 390.067 C 229.200 389.810,229.740 389.600,230.400 389.600 C 231.060 389.600,231.600 389.420,231.600 389.200 C 231.600 388.980,232.140 388.800,232.800 388.800 C 233.460 388.800,234.000 388.620,234.000 388.400 C 234.000 388.180,234.450 388.000,235.000 388.000 C 235.550 388.000,236.000 387.820,236.000 387.600 C 236.000 387.380,236.450 387.200,237.000 387.200 C 237.550 387.200,238.000 387.020,238.000 386.800 C 238.000 386.580,238.324 386.400,238.720 386.400 C 239.614 386.400,241.593 385.506,241.597 385.100 C 241.599 384.935,241.834 384.800,242.120 384.800 C 242.856 384.800,244.793 383.859,244.797 383.500 C 244.799 383.335,245.160 383.200,245.600 383.200 C 246.040 383.200,246.400 383.020,246.400 382.800 C 246.400 382.580,246.760 382.400,247.200 382.400 C 247.640 382.400,248.000 382.220,248.000 382.000 C 248.000 381.780,248.360 381.600,248.800 381.600 C 249.240 381.600,249.600 381.420,249.600 381.200 C 249.600 380.980,249.971 380.800,250.424 380.800 C 250.877 380.800,251.136 380.620,251.000 380.400 C 250.864 380.180,251.134 380.000,251.600 380.000 C 252.066 380.000,252.364 379.865,252.262 379.700 C 252.160 379.535,252.959 378.959,254.038 378.421 C 255.117 377.883,256.000 377.298,256.000 377.121 C 256.000 376.945,256.204 376.800,256.453 376.800 C 256.702 376.800,257.209 376.451,257.578 376.025 C 257.948 375.599,258.505 375.194,258.816 375.125 C 259.127 375.056,259.604 374.820,259.877 374.600 C 260.149 374.380,260.603 374.014,260.886 373.786 C 261.169 373.558,261.799 373.096,262.286 372.758 C 263.266 372.079,266.789 369.107,268.282 367.700 C 268.807 367.205,269.419 366.800,269.642 366.800 C 269.865 366.800,269.936 366.620,269.800 366.400 C 269.664 366.180,269.752 366.000,269.995 366.000 C 270.238 366.000,270.886 365.550,271.436 365.000 C 271.986 364.450,272.331 364.000,272.203 364.000 C 272.074 364.000,272.682 363.280,273.553 362.400 C 274.424 361.520,274.963 360.800,274.751 360.800 C 274.538 360.800,275.317 359.836,276.482 358.658 C 279.415 355.692,280.800 354.060,280.800 353.569 C 280.800 353.340,281.008 353.281,281.262 353.438 C 281.538 353.609,281.615 353.549,281.454 353.288 C 281.306 353.048,281.638 352.398,282.192 351.844 C 282.747 351.290,283.200 350.624,283.200 350.365 C 283.200 350.106,283.516 349.603,283.903 349.247 C 284.289 348.891,284.860 348.105,285.170 347.500 C 285.481 346.895,285.885 346.400,286.068 346.400 C 286.250 346.400,286.400 346.055,286.400 345.633 C 286.400 345.212,286.535 344.807,286.700 344.733 C 287.076 344.566,288.375 342.436,288.671 341.500 C 288.793 341.115,289.063 340.800,289.270 340.800 C 289.478 340.800,289.549 340.640,289.428 340.445 C 289.307 340.250,289.477 339.868,289.804 339.596 C 290.132 339.324,290.400 338.800,290.400 338.431 C 290.400 338.062,290.584 337.576,290.809 337.351 C 291.035 337.125,291.303 336.505,291.405 335.972 C 291.508 335.439,291.774 334.942,291.996 334.868 C 292.218 334.794,292.400 334.208,292.400 333.567 C 292.400 332.925,292.580 332.400,292.800 332.400 C 293.020 332.400,293.200 332.040,293.200 331.600 C 293.200 331.160,293.380 330.800,293.600 330.800 C 293.820 330.800,294.000 330.260,294.000 329.600 C 294.000 328.940,294.180 328.400,294.400 328.400 C 294.620 328.400,294.800 328.038,294.800 327.595 C 294.800 327.152,294.980 326.432,295.200 325.995 C 295.420 325.558,295.780 324.842,296.000 324.405 C 296.220 323.968,296.400 323.158,296.400 322.605 C 296.400 322.052,296.580 321.600,296.800 321.600 C 297.020 321.600,297.200 320.981,297.200 320.224 C 297.200 319.467,297.380 318.736,297.600 318.600 C 297.820 318.464,298.000 317.643,298.000 316.776 C 298.000 315.909,298.180 315.200,298.400 315.200 C 298.620 315.200,298.800 314.300,298.800 313.200 C 298.800 312.100,298.980 311.200,299.200 311.200 C 299.425 311.200,299.600 310.075,299.600 308.624 C 299.600 307.207,299.780 305.936,300.000 305.800 C 300.256 305.642,300.400 299.863,300.400 289.776 L 300.400 274.000 313.200 274.000 L 326.000 274.000 326.043 319.700 C 326.091 370.456,326.048 367.451,326.752 368.734 C 327.034 369.248,327.169 369.765,327.051 369.882 C 326.934 369.999,327.101 370.358,327.423 370.680 C 327.744 371.001,327.905 371.430,327.780 371.632 C 327.655 371.835,327.705 372.000,327.890 372.000 C 328.076 372.000,328.533 372.518,328.907 373.151 C 329.832 374.716,331.817 376.800,332.384 376.800 C 332.639 376.800,332.719 377.008,332.562 377.262 C 332.393 377.536,332.451 377.615,332.706 377.458 C 332.942 377.312,333.407 377.464,333.739 377.796 C 334.071 378.128,334.546 378.400,334.795 378.400 C 335.044 378.400,335.136 378.580,335.000 378.800 C 334.856 379.033,335.263 379.200,335.976 379.200 C 336.649 379.200,337.200 379.380,337.200 379.600 C 337.200 379.820,337.740 380.000,338.400 380.000 C 339.060 380.000,339.600 380.189,339.600 380.420 C 339.600 380.933,346.714 380.863,347.033 380.347 C 347.151 380.156,347.762 380.000,348.390 380.000 C 349.019 380.000,349.596 379.812,349.673 379.582 C 349.749 379.352,350.202 379.135,350.678 379.099 C 351.155 379.063,351.456 378.891,351.349 378.717 C 351.241 378.543,351.523 378.400,351.976 378.400 C 352.429 378.400,352.800 378.220,352.800 378.000 C 352.800 377.780,353.171 377.600,353.624 377.600 C 354.077 377.600,354.336 377.420,354.200 377.200 C 354.064 376.980,354.098 376.800,354.276 376.800 C 354.454 376.799,355.123 376.349,355.762 375.800 C 356.401 375.250,356.766 374.800,356.573 374.800 C 356.380 374.800,356.622 374.520,357.111 374.177 C 357.600 373.835,358.000 373.194,358.000 372.754 C 358.000 372.313,358.180 372.064,358.400 372.200 C 358.628 372.341,358.800 371.996,358.800 371.400 C 358.800 370.804,358.972 370.459,359.200 370.600 C 359.433 370.744,359.600 370.345,359.600 369.647 C 359.600 368.987,359.780 368.336,360.000 368.200 C 360.264 368.037,360.400 345.196,360.400 300.976 C 360.400 256.592,360.265 234.000,360.000 234.000 C 359.780 234.000,359.600 233.458,359.600 232.795 C 359.600 232.132,359.441 231.277,359.246 230.895 C 359.051 230.513,358.468 229.210,357.950 228.000 C 357.432 226.790,356.827 225.668,356.604 225.506 C 356.382 225.344,356.363 225.209,356.561 225.206 C 356.760 225.203,356.538 224.867,356.068 224.459 C 355.599 224.052,355.331 223.602,355.474 223.459 C 355.617 223.317,355.493 223.200,355.200 223.200 C 354.907 223.200,354.778 223.088,354.915 222.952 C 355.198 222.669,350.104 217.600,349.537 217.600 C 349.333 217.600,348.780 217.240,348.308 216.800 C 347.836 216.360,347.213 216.000,346.925 216.000 C 346.636 216.000,346.400 215.820,346.400 215.600 C 346.400 215.380,346.040 215.200,345.600 215.200 C 345.160 215.200,344.800 215.020,344.800 214.800 C 344.800 214.580,344.260 214.400,343.600 214.400 C 342.940 214.400,342.400 214.220,342.400 214.000 C 342.400 213.780,341.781 213.600,341.024 213.600 C 340.267 213.600,339.536 213.420,339.400 213.200 C 339.258 212.971,337.196 212.800,334.576 212.800 C 331.792 212.800,330.000 212.957,330.000 213.200 C 330.000 213.420,329.706 213.600,329.347 213.600 C 328.616 213.600,326.801 215.525,326.800 216.300 C 326.800 216.575,326.620 216.800,326.400 216.800 C 326.157 216.800,326.000 218.600,326.000 221.400 L 326.000 226.000 313.200 226.000 L 300.400 226.000 300.400 223.624 C 300.400 222.317,300.220 221.136,300.000 221.000 C 299.780 220.864,299.600 220.223,299.600 219.576 C 299.600 218.929,299.420 218.400,299.200 218.400 C 298.980 218.400,298.800 218.040,298.800 217.600 C 298.800 217.160,298.620 216.800,298.400 216.800 C 298.180 216.800,298.000 216.564,298.000 216.275 C 298.000 215.987,297.664 215.391,297.254 214.950 C 296.844 214.510,296.277 213.711,295.995 213.175 C 295.484 212.205,293.325 210.179,292.849 210.223 C 292.712 210.236,292.152 209.831,291.604 209.323 C 291.056 208.816,290.302 208.400,289.928 208.400 C 289.553 208.400,289.136 208.220,289.000 208.000 C 288.864 207.780,288.403 207.600,287.976 207.600 C 287.549 207.600,287.200 207.420,287.200 207.200 C 287.200 206.980,286.480 206.800,285.600 206.800 C 284.720 206.800,284.000 206.620,284.000 206.400 C 284.000 206.137,274.333 206.000,255.800 206.000 L 227.600 206.000 227.600 193.400 L 227.600 180.800 249.776 180.800 C 264.129 180.800,272.040 180.659,272.200 180.400 C 272.336 180.180,273.427 180.000,274.624 180.000 C 275.821 180.000,276.800 179.820,276.800 179.600 C 276.800 179.380,277.520 179.200,278.400 179.200 C 279.280 179.200,280.000 179.020,280.000 178.800 C 280.000 178.580,280.540 178.400,281.200 178.400 C 281.860 178.400,282.400 178.220,282.400 178.000 C 282.400 177.780,282.940 177.600,283.600 177.600 C 284.260 177.600,284.800 177.420,284.800 177.200 C 284.800 176.980,285.149 176.800,285.576 176.800 C 286.003 176.800,286.464 176.620,286.600 176.400 C 286.736 176.180,287.207 176.000,287.647 176.000 C 288.087 176.000,288.336 175.820,288.200 175.600 C 288.064 175.380,288.327 175.200,288.784 175.200 C 289.638 175.200,292.530 173.561,292.990 172.816 C 293.131 172.587,293.530 172.400,293.877 172.400 C 294.223 172.400,294.797 172.072,295.153 171.671 C 295.509 171.271,296.474 170.490,297.298 169.936 C 298.122 169.382,298.677 168.810,298.531 168.665 C 298.386 168.519,298.472 168.400,298.723 168.400 C 299.219 168.400,302.964 164.808,302.489 164.788 C 302.330 164.781,302.515 164.592,302.900 164.368 C 303.285 164.144,303.600 163.779,303.600 163.558 C 303.600 163.337,304.139 162.581,304.798 161.878 C 305.457 161.175,305.997 160.397,305.998 160.149 C 305.999 159.901,306.268 159.476,306.596 159.204 C 306.923 158.932,307.105 158.570,307.000 158.400 C 306.895 158.230,307.077 157.868,307.404 157.596 C 307.732 157.324,308.000 156.854,308.000 156.551 C 308.000 156.248,308.180 156.000,308.400 156.000 C 308.620 156.000,308.800 155.766,308.800 155.480 C 308.800 154.744,309.741 152.807,310.100 152.803 C 310.265 152.801,310.400 152.249,310.400 151.576 C 310.400 150.863,310.567 150.456,310.800 150.600 C 311.027 150.740,311.200 150.404,311.200 149.824 C 311.200 149.261,311.380 148.800,311.600 148.800 C 311.820 148.800,312.000 148.080,312.000 147.200 C 312.000 146.320,312.180 145.600,312.400 145.600 C 312.620 145.600,312.800 144.880,312.800 144.000 C 312.800 143.120,312.980 142.400,313.200 142.400 C 313.435 142.400,313.600 141.008,313.600 139.024 C 313.600 137.167,313.772 135.541,313.983 135.411 C 314.193 135.281,314.270 134.927,314.154 134.624 C 313.995 134.209,314.516 134.021,316.271 133.857 C 319.994 133.511,321.988 133.142,322.226 132.758 C 322.348 132.561,322.809 132.400,323.252 132.400 C 323.695 132.400,324.329 132.128,324.661 131.796 C 324.993 131.464,325.430 131.295,325.632 131.420 C 325.835 131.545,326.000 131.457,326.000 131.224 C 326.000 130.991,326.236 130.800,326.525 130.800 C 326.813 130.800,327.436 130.440,327.908 130.000 C 328.380 129.560,328.970 129.200,329.219 129.200 C 329.784 129.200,335.041 123.788,335.922 122.300 C 336.280 121.695,336.714 121.200,336.886 121.200 C 337.059 121.200,337.200 120.930,337.200 120.600 C 337.200 120.270,337.380 120.000,337.600 120.000 C 337.820 120.000,338.000 119.640,338.000 119.200 C 338.000 118.760,338.180 118.400,338.400 118.400 C 338.620 118.400,338.800 117.986,338.800 117.480 C 338.800 116.974,338.979 116.381,339.198 116.162 C 339.416 115.944,339.636 115.278,339.685 114.682 C 339.734 114.087,339.918 113.600,340.094 113.600 C 340.270 113.600,340.353 112.925,340.278 112.100 C 340.204 111.275,340.379 109.790,340.667 108.800 C 341.300 106.625,341.426 80.772,340.818 77.720 C 340.607 76.664,340.362 75.159,340.272 74.375 C 340.182 73.591,339.928 72.601,339.708 72.175 C 339.488 71.749,339.389 71.175,339.487 70.900 C 339.586 70.625,339.472 70.400,339.233 70.400 C 338.995 70.400,338.794 70.085,338.787 69.700 C 338.780 69.315,338.516 68.658,338.200 68.241 C 337.884 67.824,337.720 67.329,337.836 67.141 C 337.952 66.953,337.857 66.800,337.624 66.800 C 337.391 66.800,337.200 66.410,337.200 65.933 C 337.200 65.457,337.077 65.190,336.927 65.340 C 336.776 65.490,336.371 65.003,336.027 64.258 C 335.682 63.512,335.299 62.924,335.176 62.951 C 335.052 62.978,334.332 62.280,333.576 61.400 C 332.819 60.520,331.894 59.571,331.520 59.291 C 331.145 59.011,330.573 58.516,330.248 58.191 C 329.923 57.866,329.457 57.600,329.212 57.600 C 328.967 57.600,328.380 57.240,327.908 56.800 C 327.436 56.360,326.813 56.000,326.525 56.000 C 326.236 56.000,326.000 55.820,326.000 55.600 C 326.000 55.380,325.640 55.200,325.200 55.200 C 324.760 55.200,324.400 55.020,324.400 54.800 C 324.400 54.580,323.950 54.400,323.400 54.400 C 322.850 54.400,322.400 54.257,322.400 54.082 C 322.400 53.907,321.744 53.719,320.943 53.665 C 320.142 53.611,319.164 53.395,318.769 53.184 C 318.375 52.973,317.276 52.799,316.326 52.797 C 314.106 52.793,313.600 51.817,313.600 47.544 C 313.600 45.841,313.420 44.336,313.200 44.200 C 312.980 44.064,312.800 43.344,312.800 42.600 C 312.800 41.856,312.620 41.136,312.400 41.000 C 312.180 40.864,312.000 40.234,312.000 39.600 C 312.000 38.966,311.820 38.336,311.600 38.200 C 311.380 38.064,311.200 37.423,311.200 36.776 C 311.200 36.129,311.020 35.600,310.800 35.600 C 310.580 35.600,310.400 35.240,310.400 34.800 C 310.400 34.360,310.220 34.000,310.000 34.000 C 309.780 34.000,309.600 33.640,309.600 33.200 C 309.600 32.760,309.420 32.400,309.200 32.400 C 308.980 32.400,308.800 32.040,308.800 31.600 C 308.800 31.160,308.634 30.800,308.432 30.800 C 308.229 30.800,307.950 30.284,307.812 29.654 C 307.673 29.024,307.209 28.131,306.780 27.671 C 306.351 27.210,305.996 26.691,305.991 26.517 C 305.986 26.343,305.357 25.506,304.593 24.658 C 303.829 23.810,303.268 23.000,303.347 22.858 C 303.425 22.716,302.164 21.309,300.544 19.732 C 298.925 18.154,297.595 16.984,297.588 17.132 C 297.581 17.279,297.392 17.085,297.168 16.700 C 296.944 16.315,296.565 16.000,296.327 16.000 C 296.089 16.000,295.591 15.651,295.222 15.225 C 294.852 14.799,294.291 14.394,293.975 14.325 C 293.659 14.256,293.130 13.930,292.799 13.600 C 291.622 12.425,285.532 9.316,283.800 9.006 C 282.102 8.702,280.800 8.243,280.800 7.950 C 280.800 7.757,280.080 7.600,279.200 7.600 C 278.320 7.600,277.600 7.420,277.600 7.200 C 277.600 6.978,276.533 6.800,275.200 6.800 C 273.867 6.800,272.800 6.622,272.800 6.400 C 272.800 6.135,248.267 6.000,200.000 6.000 C 151.733 6.000,127.200 6.135,127.200 6.400 M260.000 40.184 C 260.990 40.348,261.971 40.644,262.180 40.841 C 262.389 41.038,262.886 41.200,263.285 41.200 C 263.684 41.200,264.323 41.358,264.705 41.551 C 265.087 41.744,266.930 42.646,268.800 43.556 C 277.718 47.897,283.747 55.785,286.339 66.506 C 287.267 70.343,286.960 117.809,285.983 121.507 C 282.799 133.563,273.580 142.871,261.800 145.922 C 257.006 147.163,255.240 147.200,200.000 147.200 C 144.760 147.200,142.994 147.163,138.200 145.922 C 126.382 142.860,117.270 133.659,114.026 121.507 C 113.041 117.818,112.726 70.372,113.661 66.506 C 115.403 59.301,118.227 54.138,123.018 49.400 C 125.299 47.144,127.718 45.211,128.267 45.205 C 128.523 45.202,128.793 45.055,128.867 44.879 C 128.940 44.702,130.260 43.961,131.800 43.232 C 133.340 42.504,134.913 41.748,135.295 41.554 C 135.677 41.359,136.341 41.200,136.771 41.200 C 137.201 41.200,137.664 41.020,137.800 40.800 C 137.936 40.580,138.712 40.387,139.524 40.372 C 140.336 40.356,141.360 40.188,141.800 39.998 C 142.767 39.580,257.437 39.761,260.000 40.184 M215.240 240.053 C 220.464 241.793,220.443 241.651,220.311 274.000 C 220.187 304.689,220.331 303.192,217.275 305.523 L 215.862 306.600 199.968 306.600 L 184.074 306.600 182.537 305.358 C 179.554 302.948,179.645 303.950,179.628 273.400 C 179.606 236.432,177.647 239.705,199.840 239.641 C 209.333 239.613,214.321 239.747,215.240 240.053 " stroke="none" fill="#d1e1e9" fill-rule="evenodd"></path><path id="path3" d="M143.305 39.887 C 143.914 39.979,144.814 39.977,145.305 39.882 C 145.797 39.787,145.300 39.711,144.200 39.714 C 143.100 39.717,142.697 39.795,143.305 39.887 M254.905 39.887 C 255.514 39.979,256.414 39.977,256.905 39.882 C 257.397 39.787,256.900 39.711,255.800 39.714 C 254.700 39.717,254.297 39.795,254.905 39.887 M113.268 118.200 C 113.262 118.640,113.411 119.360,113.600 119.800 C 114.038 120.819,114.038 119.768,113.600 118.400 C 113.343 117.596,113.277 117.557,113.268 118.200 M286.250 118.850 C 285.917 120.517,286.240 120.840,286.600 119.200 C 286.752 118.509,286.793 117.859,286.691 117.758 C 286.589 117.656,286.391 118.147,286.250 118.850 M120.000 134.125 C 120.000 134.194,120.585 134.779,121.300 135.425 L 122.600 136.600 121.425 135.300 C 120.330 134.088,120.000 133.816,120.000 134.125 M278.575 135.300 L 277.400 136.600 278.700 135.425 C 279.415 134.779,280.000 134.194,280.000 134.125 C 280.000 133.816,279.670 134.088,278.575 135.300 M171.500 147.100 C 187.175 147.158,212.825 147.158,228.500 147.100 C 244.175 147.042,231.350 146.995,200.000 146.995 C 168.650 146.995,155.825 147.042,171.500 147.100 M184.531 240.090 C 182.870 240.624,180.799 242.793,180.138 244.689 C 179.723 245.882,179.615 251.918,179.628 273.400 C 179.645 303.950,179.554 302.948,182.537 305.358 L 184.074 306.600 199.968 306.600 L 215.862 306.600 217.275 305.523 C 220.331 303.192,220.187 304.689,220.311 274.000 C 220.443 241.651,220.464 241.793,215.240 240.053 C 213.485 239.468,186.362 239.501,184.531 240.090 M215.093 240.639 C 219.650 241.550,219.604 241.214,219.577 273.287 C 219.553 303.761,219.621 302.902,217.063 304.962 L 215.526 306.200 200.032 306.200 L 184.538 306.200 183.026 305.047 C 180.296 302.965,180.400 304.220,180.400 273.400 C 180.400 249.509,180.485 245.370,181.003 244.131 C 181.675 242.523,183.334 240.920,184.582 240.672 C 185.909 240.408,213.789 240.378,215.093 240.639 " stroke="none" fill="#88cce4" fill-rule="evenodd"></path><path id="path4" d="M143.000 40.060 C 128.342 41.688,116.959 52.251,113.757 67.200 C 113.027 70.605,112.941 115.179,113.657 118.976 C 115.714 129.891,122.533 138.852,132.434 143.648 C 135.799 145.278,141.509 146.833,139.600 145.600 C 139.270 145.387,138.516 145.209,137.924 145.206 C 137.332 145.203,136.736 145.020,136.600 144.800 C 136.464 144.580,136.099 144.400,135.788 144.400 C 134.648 144.400,129.633 141.775,127.000 139.800 C 119.725 134.344,115.343 126.849,114.019 117.600 C 113.238 112.143,113.633 69.488,114.498 65.926 C 115.955 59.925,118.370 55.436,122.576 50.909 C 124.863 48.448,130.535 44.000,131.386 44.000 C 131.509 44.000,132.462 43.622,133.504 43.160 C 137.210 41.518,137.475 41.441,141.600 40.806 C 144.532 40.355,254.672 40.343,258.000 40.793 C 262.372 41.385,262.688 41.473,266.496 43.160 C 267.538 43.622,268.491 44.000,268.614 44.000 C 270.437 44.000,278.451 51.396,281.145 55.564 C 285.974 63.034,286.397 66.085,286.398 93.400 C 286.399 119.013,286.026 122.519,282.673 128.400 C 282.234 129.170,281.677 130.160,281.436 130.600 C 278.355 136.224,268.164 144.400,264.235 144.400 C 263.912 144.400,263.536 144.580,263.400 144.800 C 263.264 145.020,262.668 145.203,262.076 145.206 C 261.484 145.209,260.730 145.403,260.400 145.636 C 259.258 146.443,262.893 145.577,265.916 144.322 C 276.595 139.890,283.773 131.105,286.193 119.505 C 287.050 115.396,287.092 71.165,286.243 67.200 C 282.969 51.916,271.681 41.662,256.316 40.016 C 251.502 39.500,147.677 39.541,143.000 40.060 M156.400 66.779 C 155.825 66.950,157.357 67.075,160.000 67.071 C 162.595 67.067,164.164 66.937,163.600 66.772 C 162.298 66.391,157.682 66.396,156.400 66.779 M236.400 66.772 C 235.836 66.937,237.405 67.067,240.000 67.071 C 242.643 67.075,244.175 66.950,243.600 66.779 C 242.318 66.396,237.702 66.391,236.400 66.772 M152.929 67.730 C 152.229 67.989,151.509 68.364,151.329 68.564 C 151.134 68.779,151.326 68.802,151.800 68.620 C 152.240 68.451,153.185 68.144,153.900 67.938 C 155.201 67.562,155.641 67.173,154.700 67.230 C 154.425 67.247,153.628 67.472,152.929 67.730 M165.600 67.621 C 172.721 70.734,178.768 76.748,178.806 80.756 C 178.809 81.110,179.000 81.670,179.230 82.000 C 179.538 82.442,179.578 82.231,179.381 81.200 C 178.342 75.756,171.162 68.470,165.800 67.419 C 164.645 67.192,164.637 67.200,165.600 67.621 M232.929 67.730 C 232.229 67.989,231.509 68.364,231.329 68.564 C 231.134 68.779,231.326 68.802,231.800 68.620 C 232.240 68.451,233.185 68.144,233.900 67.938 C 235.201 67.562,235.641 67.173,234.700 67.230 C 234.425 67.247,233.628 67.472,232.929 67.730 M245.600 67.621 C 253.127 70.911,256.105 73.826,258.758 80.500 C 262.559 90.065,256.617 101.427,245.600 105.657 C 243.738 106.373,236.264 106.373,234.400 105.658 C 225.249 102.149,220.477 95.600,220.347 86.372 C 220.301 83.132,220.253 82.882,220.007 84.600 C 218.779 93.177,224.299 102.111,233.000 105.629 C 235.655 106.703,243.676 107.047,245.639 106.172 C 254.831 102.073,258.545 97.699,260.012 89.247 C 261.566 80.284,254.270 69.076,245.800 67.418 C 244.644 67.192,244.637 67.200,245.600 67.621 M149.000 69.679 C 137.861 77.601,136.640 92.418,146.377 101.500 C 147.933 102.950,149.317 103.769,154.090 106.062 C 161.101 109.431,173.893 103.931,177.935 95.810 C 179.198 93.272,180.144 89.932,179.240 91.200 C 179.005 91.530,178.809 92.099,178.806 92.466 C 178.768 96.578,172.220 103.119,165.600 105.658 C 163.736 106.373,156.262 106.373,154.400 105.657 C 143.412 101.438,137.512 90.247,141.190 80.600 C 142.883 76.159,145.785 72.341,149.100 70.195 C 150.035 69.589,150.800 69.028,150.800 68.947 C 150.800 68.605,150.122 68.881,149.000 69.679 M228.676 70.032 C 226.207 71.668,223.643 74.572,222.123 77.454 C 220.921 79.735,219.855 83.312,220.770 82.000 C 221.000 81.670,221.191 81.103,221.194 80.741 C 221.214 78.528,225.097 73.173,228.450 70.731 C 229.743 69.789,230.800 68.970,230.800 68.910 C 230.800 68.671,230.465 68.848,228.676 70.032 M179.600 86.600 C 179.600 88.763,179.699 90.434,179.820 90.313 C 179.941 90.192,180.040 88.521,180.040 86.600 C 180.040 84.679,179.941 83.008,179.820 82.887 C 179.699 82.766,179.600 84.437,179.600 86.600 M190.183 113.945 C 188.640 114.886,186.799 117.057,186.804 117.931 C 186.806 118.299,187.267 117.833,187.829 116.895 C 189.631 113.888,190.696 113.600,200.000 113.600 C 209.285 113.600,210.342 113.885,212.203 116.895 C 212.898 118.020,213.164 118.260,212.983 117.600 C 212.649 116.377,210.977 114.526,209.520 113.764 C 207.700 112.813,191.795 112.962,190.183 113.945 M186.493 120.000 C 186.493 120.770,186.575 121.085,186.676 120.700 C 186.776 120.315,186.776 119.685,186.676 119.300 C 186.575 118.915,186.493 119.230,186.493 120.000 M213.293 120.000 C 213.293 120.770,213.375 121.085,213.476 120.700 C 213.576 120.315,213.576 119.685,213.476 119.300 C 213.375 118.915,213.293 119.230,213.293 120.000 M187.017 122.400 C 187.167 122.950,187.765 123.911,188.345 124.536 C 190.357 126.701,190.865 126.800,200.000 126.800 C 209.135 126.800,209.643 126.701,211.655 124.536 C 212.235 123.911,212.833 122.950,212.983 122.400 C 213.164 121.740,212.898 121.980,212.203 123.105 C 210.342 126.115,209.285 126.400,200.000 126.400 C 190.715 126.400,189.658 126.115,187.797 123.105 C 187.102 121.980,186.836 121.740,187.017 122.400 M141.842 146.477 C 143.877 146.839,256.123 146.839,258.158 146.477 C 259.015 146.325,232.844 146.200,200.000 146.200 C 167.156 146.200,140.985 146.325,141.842 146.477 " stroke="none" fill="#6c7c88" fill-rule="evenodd"></path></g></svg>